<svg xmlns="http://www.w3.org/2000/svg" width="224" height="224" viewBox="0 0 224 224">
  <defs>
    <style>
      .cls-1 {
        fill: #222;
        fill-rule: evenodd;
      }
    </style>
  </defs>
  <path id="Color_Fill_1" data-name="Color Fill 1" class="cls-1" d="M101,8l6,1c1.329-10.072,3.613-7.008,9-8,0.068,10.816,2.1,12.545,1,22l10-5c-0.616,8.009-.4,4.134,2,11-9.856-.012-15.651,3.594-20,9,4.253-2.222,11.026-5.6,17-3,5.833,2.732,10.252,10.43,12,17h-4l-7-3,2,4,17,9-1,2-5,1,9,7c-7.806-.124-10.466-2.111-16-4,3.7,9.633,17.681,11.222,22,22h-6l-4-2c3.88,7.328,12.629,6.365,16,14H146L130,90c8.073,14.677,24.217,19.994,37,30-2.068,2.832-1.485,1.232-2,4,4.948,0.815,2.978-.668,5,3l-20,1,2,2c4.675,7.106,16.537,6.967,20,15l-16,5c3.833,2.217,5.981,1.6,8,6h-8c7.874,5.8,21.8,5.311,36,5-2.695,7-13.046,7.539-23,7q0.5,1,1,2l7,5v1a152.564,152.564,0,0,1-41-5l4,5c9.974,2.814,36.952,9.2,41,18h-2l-17,1,2,3c4.22,0.883,5.123.488,7,4H161c-14.5,4.165-24.206-7.811-32-14,3.758,6.741,8.662,9.763,11,18h-4l-8-7q0.5,3,1,6h-4l-7-3,3,22H105v-1q0.5-11,1-22l-10,5v-6l-7,6c-3.4-1.346-2.069-.607-4-3l11-15c-4.563,3.823-28.7,27.847-38,12l5-4c-9.032.424-17.2,2.035-22-3,16.2-7.446,36.948-8.942,46-21-10.284,4.281-29.441,6.25-39,5,1.882-5.031,4.7-4.788,8-8-10.249.662-20.74,0.565-24-6,13.588-1.271,28.573.332,38-7l-10,1v-1l2-3c3.807-.656,4.838-1.05,7-3a32.244,32.244,0,0,1-18-5l1-2c8.312-2.332,13.739-6.694,19-12-0.644-3.635-.4-3.027-2-5l-12,2c-2.146-5.552-4.57-2.771-7-8,14.307-.271,33.484-15.213,39-25-7.936,5.755-14.195,8.276-29,8v-3c8.5-1.721,11.842-6.5,18-10V89c-4.345.98-7.616,2.785-12,1l2-3c5.979-2.54,15.69-12.789,18-19-3.953,2.118-4.99,3.391-11,4V69l5-4V64c-4.948-.815-2.978.668-5-3,7.289-.791,14.813-4.981,18-10L79,54V51c4.065-2.109.935-1.613,3-6,6.791-2.48,12.164-8.8,19-13-2.344-2.258-2.566-2.375-7-3,1.141-5.967,1.969-6.852,9-7Q102,15,101,8Z"/>
</svg>
